<?xml version="1.0" standalone="no"?>
<!DOCTYPE svg PUBLIC "-//W3C//DTD SVG 20010904//EN"
 "http://www.w3.org/TR/2001/REC-SVG-20010904/DTD/svg10.dtd">
<svg version="1.0" xmlns="http://www.w3.org/2000/svg"
 width="400.000000pt" height="400.000000pt" viewBox="0 0 400.000000 400.000000"
 preserveAspectRatio="xMidYMid meet">

<g transform="translate(0.000000,400.000000) scale(0.100000,-0.100000)"
fill="#000000" stroke="none">
<path d="M1611 3389 c-131 -25 -300 -103 -369 -169 -79 -77 -112 -176 -112
-341 l0 -106 38 -26 c37 -24 62 -74 62 -121 0 -10 4 -15 9 -11 6 3 9 13 9 23
-1 9 2 35 7 57 4 22 9 47 10 55 1 8 12 44 23 79 12 35 19 67 16 72 -3 5 2 9
10 9 9 0 28 18 42 40 23 34 25 42 13 56 -8 9 -14 24 -14 33 0 9 -5 15 -12 14
-13 -3 -9 80 7 121 5 13 7 26 5 28 -3 2 15 25 39 51 23 26 40 47 37 47 -14 1
137 62 178 72 25 6 50 15 56 19 11 10 8 10 -54 -2z"/>
<path d="M1690 3390 c18 -12 100 -13 100 -2 0 5 -26 10 -57 10 -41 2 -54 -1
-43 -8z"/>
<path d="M1818 3383 c7 -3 16 -2 19 1 4 3 -2 6 -13 5 -11 0 -14 -3 -6 -6z"/>
<path d="M1870 3370 c8 -5 20 -10 25 -10 6 0 3 5 -5 10 -8 5 -19 10 -25 10 -5
0 -3 -5 5 -10z"/>
<path d="M1555 2917 c-30 -16 -55 -35 -55 -43 0 -17 6 -17 106 0 91 16 132 12
113 -10 -9 -11 -8 -14 2 -15 8 -1 -4 -5 -26 -8 -22 -4 -51 -10 -65 -14 -14 -4
-7 2 15 13 l40 20 -40 -6 c-76 -12 -169 -64 -115 -64 12 0 19 -4 15 -10 -11
-17 44 -42 102 -45 l58 -3 -37 15 c-45 19 -55 39 -26 54 17 9 23 9 26 0 5 -16
31 -41 42 -41 5 0 18 10 29 22 17 18 21 19 26 6 4 -9 15 -18 26 -21 14 -4 19
-1 15 8 -7 18 4 26 23 16 10 -6 23 -4 35 4 15 12 17 19 8 44 -6 16 -8 32 -5
34 3 3 2 15 -2 27 -4 12 -9 19 -13 16 -3 -3 -14 2 -25 11 -15 15 -38 18 -118
18 -88 0 -104 -3 -154 -28z"/>
<path d="M2047 2882 c-19 -21 -37 -66 -37 -92 0 -18 2 -18 35 -4 19 7 51 14
70 14 23 0 34 4 30 11 -5 7 4 9 26 7 18 -2 34 -9 37 -16 3 -9 -3 -11 -22 -6
-16 4 -26 2 -26 -5 0 -6 -6 -8 -14 -5 -19 7 -87 -12 -111 -32 -20 -16 -20 -16
0 -9 47 17 51 16 63 -10 10 -22 18 -26 38 -22 16 3 23 0 21 -7 -2 -6 -16 -11
-30 -11 -17 1 -27 -6 -31 -18 -3 -12 0 -17 8 -14 8 3 13 -1 12 -11 -1 -11 8
-18 26 -20 20 -2 31 4 45 25 10 15 26 34 35 41 15 11 18 28 18 90 0 42 -5 84
-10 92 -14 23 -163 25 -183 2z"/>
<path d="M1083 2704 c8 -46 15 -54 32 -31 12 17 14 17 28 -3 10 -14 13 -34 10
-55 -4 -23 -1 -34 10 -38 44 -17 13 104 -37 145 -35 29 -49 23 -43 -18z"/>
<path d="M1876 2525 c-24 -12 -31 -13 -38 -3 -6 10 -8 10 -8 -2 0 -8 4 -20 8
-26 10 -16 52 -28 52 -15 0 6 -4 11 -10 11 -5 0 -10 5 -10 10 0 21 57 -1 116
-45 9 -6 20 -3 36 10 22 19 22 19 -1 -8 -24 -26 -51 -36 -51 -18 0 5 -13 14
-29 21 -34 14 -58 4 -90 -36 -11 -15 -40 -35 -63 -46 -24 -11 -53 -25 -65 -31
-14 -6 -30 -30 -42 -61 -18 -50 -40 -73 -37 -39 0 10 -6 18 -14 18 -8 0 -19
10 -25 23 -5 12 -16 20 -22 17 -8 -2 -13 4 -13 17 0 18 -2 19 -17 7 -9 -8 -14
-9 -11 -4 8 13 -19 38 -27 25 -3 -5 -21 6 -39 23 -52 48 -63 56 -71 49 -4 -4
-5 2 -3 13 5 30 -37 24 -66 -10 -23 -27 -26 -28 -27 -10 -1 11 -1 27 0 35 1
11 -1 11 -9 -3 -6 -9 -9 -21 -5 -26 3 -5 1 -12 -4 -15 -5 -3 -14 14 -20 38 -6
24 -18 49 -28 57 -15 12 -16 12 -10 -3 9 -26 0 -22 -28 10 -13 15 -27 24 -31
19 -4 -4 7 -21 24 -37 38 -35 41 -65 7 -91 -23 -19 -23 -21 -7 -39 36 -39 44
-52 52 -81 5 -16 7 -40 4 -54 -2 -14 -1 -25 4 -25 8 0 35 -71 37 -95 0 -5 4
-16 8 -22 5 -7 5 -17 2 -23 -3 -5 0 -10 7 -10 7 0 21 -17 30 -38 21 -46 131
-138 213 -179 33 -17 101 -42 150 -56 74 -21 99 -24 140 -17 93 17 107 21 148
41 44 23 61 14 51 -28 -3 -12 -7 -41 -7 -65 -1 -24 -6 -46 -11 -49 -4 -4 -5
-17 -1 -29 7 -23 8 -23 20 7 7 17 18 34 24 38 9 5 9 11 -1 22 -10 13 -9 18 8
32 28 22 33 48 23 111 -8 49 -6 55 21 89 59 73 100 218 116 414 8 95 -8 104
-26 15 -7 -35 -19 -71 -25 -81 -12 -17 -14 -15 -24 14 -6 17 -21 41 -33 53
-13 12 -35 44 -49 72 l-27 49 21 27 c26 35 15 49 -16 20 -29 -27 -40 -27 -75
-2 -39 28 -73 33 -106 15z m134 -175 c30 -19 0 -25 -80 -18 -14 1 -41 -1 -60
-5 l-35 -7 30 20 c32 21 118 28 145 10z m46 -75 c41 -21 67 -62 61 -98 -15
-89 -22 -102 -51 -99 -16 2 -36 0 -45 -4 -30 -13 -103 -15 -117 -3 -8 7 -14 7
-14 1 0 -12 -48 -13 -56 -1 -3 5 -14 5 -24 -1 -21 -11 -56 -8 -86 8 -11 6 -27
13 -38 16 -18 6 -18 7 -1 25 10 12 14 27 10 40 -8 26 20 90 48 110 42 30 258
35 313 6z m4 -585 c0 -5 -5 -10 -11 -10 -5 0 -7 5 -4 10 3 6 8 10 11 10 2 0 4
-4 4 -10z"/>
<path d="M1927 2224 c-4 -4 -23 -7 -44 -8 -52 -1 -55 -27 -7 -56 63 -40 175
-24 182 25 2 16 -6 23 -37 33 -44 13 -84 16 -94 6z"/>
<path d="M1216 2084 c-10 -26 -7 -49 9 -70 13 -17 14 -15 15 34 0 50 -12 68
-24 36z"/>
<path d="M1130 1703 c0 -16 52 -155 56 -150 2 2 -9 39 -26 83 -16 43 -29 74
-30 67z"/>
<path d="M2111 1665 c-11 -24 -32 -61 -48 -82 l-28 -37 28 18 c27 18 27 18 67
-18 34 -30 140 -92 140 -81 0 16 -33 139 -45 168 -15 36 -58 77 -81 77 -7 0
-22 -20 -33 -45z"/>
<path d="M1440 1651 c-45 -24 -84 -66 -75 -81 4 -6 13 -9 21 -6 20 7 45 -4 37
-17 -3 -6 -1 -7 5 -3 6 4 9 13 5 21 -3 11 -1 13 10 10 10 -4 17 2 21 20 4 16
12 25 20 22 18 -7 38 27 23 42 -15 15 -26 13 -67 -8z"/>
<path d="M1752 1384 c15 -15 30 -26 33 -23 2 3 -10 16 -28 29 l-32 23 27 -29z"/>
<path d="M641 1375 c0 -5 9 -28 20 -50 10 -22 16 -29 13 -15 -7 28 -33 80 -33
65z"/>
<path d="M1721 1169 c0 -52 4 -116 8 -144 5 -29 6 8 3 90 -5 160 -12 194 -11
54z"/>
<path d="M701 1220 c0 -8 4 -24 9 -35 5 -13 9 -14 9 -5 0 8 -4 24 -9 35 -5 13
-9 14 -9 5z"/>
<path d="M721 1150 c0 -8 4 -24 9 -35 5 -13 9 -14 9 -5 0 8 -4 24 -9 35 -5 13
-9 14 -9 5z"/>
<path d="M640 1086 c0 -2 8 -10 18 -17 15 -13 16 -12 3 4 -13 16 -21 21 -21
13z"/>
<path d="M690 1020 c6 -11 13 -20 16 -20 2 0 0 9 -6 20 -6 11 -13 20 -16 20
-2 0 0 -9 6 -20z"/>
<path d="M761 984 c0 -11 3 -14 6 -6 3 7 2 16 -1 19 -3 4 -6 -2 -5 -13z"/>
<path d="M769 928 c-2 -26 -2 -26 6 -65 18 -101 26 -135 32 -130 7 7 -19 167
-27 167 -4 0 -5 11 -2 25 2 14 2 25 -2 25 -3 0 -7 -10 -7 -22z"/>
<path d="M1743 890 c0 -30 2 -43 4 -27 2 15 2 39 0 55 -2 15 -4 2 -4 -28z"/>
<path d="M1751 784 c0 -11 3 -14 6 -6 3 7 2 16 -1 19 -3 4 -6 -2 -5 -13z"/>
<path d="M811 705 c0 -11 6 -40 13 -65 19 -58 20 -30 2 35 -8 28 -15 41 -15
30z"/>
<path d="M1762 680 c0 -14 2 -19 5 -12 2 6 2 18 0 25 -3 6 -5 1 -5 -13z"/>
<path d="M2710 568 c0 -26 4 -38 8 -30 8 12 4 72 -4 72 -2 0 -4 -19 -4 -42z"/>
<path d="M841 574 c0 -11 3 -14 6 -6 3 7 2 16 -1 19 -3 4 -6 -2 -5 -13z"/>
<path d="M1773 550 c0 -25 2 -35 4 -22 2 12 2 32 0 45 -2 12 -4 2 -4 -23z"/>
<path d="M590 516 c0 -8 4 -17 9 -20 5 -4 7 3 4 14 -6 23 -13 26 -13 6z"/>
<path d="M861 502 c-1 -15 26 -82 33 -82 3 0 -1 15 -8 33 -7 17 -16 39 -19 47
-3 10 -6 10 -6 2z"/>
<path d="M2711 469 c-1 -31 -9 -58 -26 -83 -27 -40 -30 -61 -16 -99 12 -30 -4
-37 -92 -37 -69 0 -142 -17 -158 -36 -8 -10 5 -8 46 6 78 27 179 27 222 0 39
-23 71 -73 104 -157 l24 -63 75 2 c41 1 63 4 47 6 -16 2 -25 8 -21 14 5 8 -3
9 -24 5 -27 -6 -30 -4 -27 14 2 12 9 28 16 38 6 9 0 3 -15 -12 -28 -30 -46
-28 -46 4 0 10 -4 19 -10 19 -8 0 -43 55 -39 62 0 2 -4 14 -9 28 -6 14 -16 40
-22 58 -7 18 -26 40 -41 48 -16 8 -29 18 -29 21 0 4 13 21 29 38 28 29 29 32
21 100 -6 59 -7 63 -9 24z"/>
<path d="M421 454 c0 -11 3 -14 6 -6 3 7 2 16 -1 19 -3 4 -6 -2 -5 -13z"/>
<path d="M380 363 c-1 -28 21 -62 52 -83 l33 -22 -28 26 c-15 14 -34 40 -42
58 -8 18 -14 28 -15 21z"/>
<path d="M1784 285 c0 -50 1 -71 3 -48 2 23 2 64 0 90 -2 26 -3 8 -3 -42z"/>
<path d="M484 241 c20 -22 26 -25 26 -13 0 4 -10 13 -22 21 -23 14 -23 14 -4
-8z"/>
<path d="M470 174 c0 -10 5 -26 10 -34 8 -11 9 -7 4 15 -8 37 -14 45 -14 19z"/>
<path d="M695 100 c10 -11 20 -20 23 -20 3 0 -3 9 -13 20 -10 11 -20 20 -23
20 -3 0 3 -9 13 -20z"/>
</g>
</svg>
