<svg xmlns="http://www.w3.org/2000/svg" width="1180" height="610" viewBox="0 0 1180 610" fill="none">
    <style>
        
        .text-primary { font-family: -apple-system, BlinkMacSystemFont, 'Segoe UI', Roboto, Helvetica, Arial, sans-serif; fill: #F8FAFC; }
        .text-muted { font-family: -apple-system, BlinkMacSystemFont, 'Segoe UI', Roboto, Helvetica, Arial, sans-serif; fill: #94A3B8; }
        .text-code { font-family: 'SFMono-Regular', Consolas, 'Liberation Mono', Menlo, Courier, monospace; }
        .ascii { font-family: 'SFMono-Regular', Consolas, 'Liberation Mono', Menlo, Courier, monospace; font-size: 14px; font-weight: 700; white-space: pre; line-height: 1.2; }
        .pill { cursor: pointer; transition: all 0.3s ease; fill: rgba(255,255,255,0.03); stroke: rgba(255,255,255,0.1); stroke-width: 1; }
        .pill-text { font-family: -apple-system, BlinkMacSystemFont, 'Segoe UI', Roboto, Helvetica, Arial, sans-serif; font-size: 13px; font-weight: 500; fill: #94A3B8; pointer-events: none; transition: all 0.3s ease; }
        .pill-group:hover .pill { fill: rgba(255,255,255,0.1); stroke: #22D3EE; filter: drop-shadow(0 0 8px rgba(34,211,238,0.4)); transform: scale(1.05); }
        .pill-group:hover .pill-text { fill: #F8FAFC; }
        .icon { fill: #94A3B8; transition: all 0.3s ease; cursor: pointer; }
        .icon-group:hover .icon { fill: #22D3EE; filter: drop-shadow(0 0 5px #22D3EE); transform: scale(1.1); transform-origin: center; }
    </style>
    <defs>
        <linearGradient id="accent" x1="0%" y1="0%" x2="100%" y2="0%">
            <stop offset="0%" stop-color="#7C3AED">
                <animate attributeName="stop-color" values="#7C3AED;#22D3EE;#10B981;#7C3AED" dur="8s" repeatCount="indefinite" />
            </stop>
            <stop offset="50%" stop-color="#22D3EE">
                <animate attributeName="stop-color" values="#22D3EE;#10B981;#7C3AED;#22D3EE" dur="8s" repeatCount="indefinite" />
            </stop>
            <stop offset="100%" stop-color="#10B981">
                <animate attributeName="stop-color" values="#10B981;#7C3AED;#22D3EE;#10B981" dur="8s" repeatCount="indefinite" />
            </stop>
        </linearGradient>
        <linearGradient id="ascii-grad" x1="0%" y1="0%" x2="100%" y2="100%">
            <stop offset="0%" stop-color="#06B6D4" />
            <stop offset="100%" stop-color="#8B5CF6" />
        </linearGradient>
        <radialGradient id="glow-1" cx="20%" cy="30%" r="50%">
            <stop offset="0%" stop-color="rgba(124,58,237,0.15)" />
            <stop offset="100%" stop-color="rgba(124,58,237,0)" />
        </radialGradient>
        <radialGradient id="glow-2" cx="80%" cy="70%" r="50%">
            <stop offset="0%" stop-color="rgba(34,211,238,0.15)" />
            <stop offset="100%" stop-color="rgba(34,211,238,0)" />
        </radialGradient>
        <radialGradient id="glow-3" cx="50%" cy="100%" r="50%">
            <stop offset="0%" stop-color="rgba(16,185,129,0.1)" />
            <stop offset="100%" stop-color="rgba(16,185,129,0)" />
        </radialGradient>
        <filter id="noise">
            <feTurbulence type="fractalNoise" baseFrequency="0.7" numOctaves="3" stitchTiles="stitch"/>
            <feColorMatrix type="matrix" values="1 0 0 0 0, 0 1 0 0 0, 0 0 1 0 0, 0 0 0 0.05 0" />
        </filter>
        <filter id="blur" x="-20%" y="-20%" width="140%" height="140%">
            <feGaussianBlur stdDeviation="12" />
        </filter>
        <clipPath id="main-clip">
            <rect width="1180" height="610" rx="24" />
        </clipPath>
        <clipPath id="type-clip-1">
            <rect x="0" y="-22" width="0" height="30">
                <animate attributeName="width" values="0;220;220;0" keyTimes="0;0.3;0.8;1" dur="4s" repeatCount="indefinite" />
            </rect>
        </clipPath>
        <clipPath id="type-clip-2">
            <rect x="0" y="-22" width="0" height="30">
                <animate attributeName="width" values="0;250;250;0" keyTimes="0;0.3;0.8;1" dur="4s" repeatCount="indefinite" />
            </rect>
        </clipPath>
        <clipPath id="type-clip-3">
            <rect x="0" y="-22" width="0" height="30">
                <animate attributeName="width" values="0;140;140;0" keyTimes="0;0.3;0.8;1" dur="4s" repeatCount="indefinite" />
            </rect>
        </clipPath>
    </defs>
    
    <g clip-path="url(#main-clip)">
        <rect width="1180" height="610" fill="#030712" />
        
        <!-- Animated Gradients -->
        <circle cx="200" cy="200" r="400" fill="url(#glow-1)">
            <animate attributeName="cx" values="100;300;100" dur="20s" repeatCount="indefinite" />
        </circle>
        <circle cx="900" cy="400" r="500" fill="url(#glow-2)">
            <animate attributeName="cx" values="1000;800;1000" dur="22s" repeatCount="indefinite" />
        </circle>
        <circle cx="600" cy="500" r="400" fill="url(#glow-3)">
            <animate attributeName="cy" values="600;400;600" dur="15s" repeatCount="indefinite" />
        </circle>

        <!-- Noise -->
        <rect width="1180" height="610" filter="url(#noise)" opacity="0.5" pointer-events="none" />

        <!-- Floating Particles -->
        <g fill="#22D3EE" opacity="0.4">
            <circle cx="150" cy="150" r="1.5"><animate attributeName="cy" values="150;50;150" dur="10s" repeatCount="indefinite"/><animate attributeName="opacity" values="0.1;0.8;0.1" dur="4s" repeatCount="indefinite"/></circle>
            <circle cx="350" cy="450" r="2"><animate attributeName="cy" values="450;350;450" dur="12s" repeatCount="indefinite"/><animate attributeName="opacity" values="0.1;0.6;0.1" dur="5s" repeatCount="indefinite"/></circle>
            <circle cx="850" cy="250" r="1"><animate attributeName="cy" values="250;150;250" dur="15s" repeatCount="indefinite"/><animate attributeName="opacity" values="0.1;0.9;0.1" dur="6s" repeatCount="indefinite"/></circle>
            <circle cx="1050" cy="500" r="2.5"><animate attributeName="cy" values="500;400;500" dur="11s" repeatCount="indefinite"/><animate attributeName="opacity" values="0.1;0.5;0.1" dur="3s" repeatCount="indefinite"/></circle>
        </g>

        <!-- Container -->
        <g transform="translate(40, 40)">
            
            <!-- LEFT PANEL (ASCII) -->
            <g>
                <rect width="418" height="530" rx="16" fill="#0F172A" opacity="0.6" filter="url(#blur)" />
                <rect width="418" height="530" rx="16" fill="rgba(15,23,42,0.4)" stroke="rgba(255,255,255,0.08)" stroke-width="1.5" />
                
                <rect width="418" height="530" rx="16" fill="none" stroke="url(#accent)" stroke-width="1.5" opacity="0.5">
                    <animate attributeName="opacity" values="0.2;0.8;0.2" dur="4s" repeatCount="indefinite" />
                </rect>

                                <!-- Floating ASCII (Photo) -->
                <g transform="translate(40, 70)">
                    <animateTransform attributeName="transform" type="translate" values="40,70; 40,60; 40,70" dur="6s" repeatCount="indefinite" />
                    
                                                            <mask id="photo-mask">
                        <rect x="-50" y="-50" width="500" height="500" fill="black" />
                        <g transform="translate(19, 410) scale(0.098, -0.098)" fill="white">
                            <path d="M1611 3389 c-131 -25 -300 -103 -369 -169 -79 -77 -112 -176 -112
-341 l0 -106 38 -26 c37 -24 62 -74 62 -121 0 -10 4 -15 9 -11 6 3 9 13 9 23
-1 9 2 35 7 57 4 22 9 47 10 55 1 8 12 44 23 79 12 35 19 67 16 72 -3 5 2 9
10 9 9 0 28 18 42 40 23 34 25 42 13 56 -8 9 -14 24 -14 33 0 9 -5 15 -12 14
-13 -3 -9 80 7 121 5 13 7 26 5 28 -3 2 15 25 39 51 23 26 40 47 37 47 -14 1
137 62 178 72 25 6 50 15 56 19 11 10 8 10 -54 -2z"/>
<path d="M1690 3390 c18 -12 100 -13 100 -2 0 5 -26 10 -57 10 -41 2 -54 -1
-43 -8z"/>
<path d="M1818 3383 c7 -3 16 -2 19 1 4 3 -2 6 -13 5 -11 0 -14 -3 -6 -6z"/>
<path d="M1870 3370 c8 -5 20 -10 25 -10 6 0 3 5 -5 10 -8 5 -19 10 -25 10 -5
0 -3 -5 5 -10z"/>
<path d="M1555 2917 c-30 -16 -55 -35 -55 -43 0 -17 6 -17 106 0 91 16 132 12
113 -10 -9 -11 -8 -14 2 -15 8 -1 -4 -5 -26 -8 -22 -4 -51 -10 -65 -14 -14 -4
-7 2 15 13 l40 20 -40 -6 c-76 -12 -169 -64 -115 -64 12 0 19 -4 15 -10 -11
-17 44 -42 102 -45 l58 -3 -37 15 c-45 19 -55 39 -26 54 17 9 23 9 26 0 5 -16
31 -41 42 -41 5 0 18 10 29 22 17 18 21 19 26 6 4 -9 15 -18 26 -21 14 -4 19
-1 15 8 -7 18 4 26 23 16 10 -6 23 -4 35 4 15 12 17 19 8 44 -6 16 -8 32 -5
34 3 3 2 15 -2 27 -4 12 -9 19 -13 16 -3 -3 -14 2 -25 11 -15 15 -38 18 -118
18 -88 0 -104 -3 -154 -28z"/>
<path d="M2047 2882 c-19 -21 -37 -66 -37 -92 0 -18 2 -18 35 -4 19 7 51 14
70 14 23 0 34 4 30 11 -5 7 4 9 26 7 18 -2 34 -9 37 -16 3 -9 -3 -11 -22 -6
-16 4 -26 2 -26 -5 0 -6 -6 -8 -14 -5 -19 7 -87 -12 -111 -32 -20 -16 -20 -16
0 -9 47 17 51 16 63 -10 10 -22 18 -26 38 -22 16 3 23 0 21 -7 -2 -6 -16 -11
-30 -11 -17 1 -27 -6 -31 -18 -3 -12 0 -17 8 -14 8 3 13 -1 12 -11 -1 -11 8
-18 26 -20 20 -2 31 4 45 25 10 15 26 34 35 41 15 11 18 28 18 90 0 42 -5 84
-10 92 -14 23 -163 25 -183 2z"/>
<path d="M1083 2704 c8 -46 15 -54 32 -31 12 17 14 17 28 -3 10 -14 13 -34 10
-55 -4 -23 -1 -34 10 -38 44 -17 13 104 -37 145 -35 29 -49 23 -43 -18z"/>
<path d="M1876 2525 c-24 -12 -31 -13 -38 -3 -6 10 -8 10 -8 -2 0 -8 4 -20 8
-26 10 -16 52 -28 52 -15 0 6 -4 11 -10 11 -5 0 -10 5 -10 10 0 21 57 -1 116
-45 9 -6 20 -3 36 10 22 19 22 19 -1 -8 -24 -26 -51 -36 -51 -18 0 5 -13 14
-29 21 -34 14 -58 4 -90 -36 -11 -15 -40 -35 -63 -46 -24 -11 -53 -25 -65 -31
-14 -6 -30 -30 -42 -61 -18 -50 -40 -73 -37 -39 0 10 -6 18 -14 18 -8 0 -19
10 -25 23 -5 12 -16 20 -22 17 -8 -2 -13 4 -13 17 0 18 -2 19 -17 7 -9 -8 -14
-9 -11 -4 8 13 -19 38 -27 25 -3 -5 -21 6 -39 23 -52 48 -63 56 -71 49 -4 -4
-5 2 -3 13 5 30 -37 24 -66 -10 -23 -27 -26 -28 -27 -10 -1 11 -1 27 0 35 1
11 -1 11 -9 -3 -6 -9 -9 -21 -5 -26 3 -5 1 -12 -4 -15 -5 -3 -14 14 -20 38 -6
24 -18 49 -28 57 -15 12 -16 12 -10 -3 9 -26 0 -22 -28 10 -13 15 -27 24 -31
19 -4 -4 7 -21 24 -37 38 -35 41 -65 7 -91 -23 -19 -23 -21 -7 -39 36 -39 44
-52 52 -81 5 -16 7 -40 4 -54 -2 -14 -1 -25 4 -25 8 0 35 -71 37 -95 0 -5 4
-16 8 -22 5 -7 5 -17 2 -23 -3 -5 0 -10 7 -10 7 0 21 -17 30 -38 21 -46 131
-138 213 -179 33 -17 101 -42 150 -56 74 -21 99 -24 140 -17 93 17 107 21 148
41 44 23 61 14 51 -28 -3 -12 -7 -41 -7 -65 -1 -24 -6 -46 -11 -49 -4 -4 -5
-17 -1 -29 7 -23 8 -23 20 7 7 17 18 34 24 38 9 5 9 11 -1 22 -10 13 -9 18 8
32 28 22 33 48 23 111 -8 49 -6 55 21 89 59 73 100 218 116 414 8 95 -8 104
-26 15 -7 -35 -19 -71 -25 -81 -12 -17 -14 -15 -24 14 -6 17 -21 41 -33 53
-13 12 -35 44 -49 72 l-27 49 21 27 c26 35 15 49 -16 20 -29 -27 -40 -27 -75
-2 -39 28 -73 33 -106 15z m134 -175 c30 -19 0 -25 -80 -18 -14 1 -41 -1 -60
-5 l-35 -7 30 20 c32 21 118 28 145 10z m46 -75 c41 -21 67 -62 61 -98 -15
-89 -22 -102 -51 -99 -16 2 -36 0 -45 -4 -30 -13 -103 -15 -117 -3 -8 7 -14 7
-14 1 0 -12 -48 -13 -56 -1 -3 5 -14 5 -24 -1 -21 -11 -56 -8 -86 8 -11 6 -27
13 -38 16 -18 6 -18 7 -1 25 10 12 14 27 10 40 -8 26 20 90 48 110 42 30 258
35 313 6z m4 -585 c0 -5 -5 -10 -11 -10 -5 0 -7 5 -4 10 3 6 8 10 11 10 2 0 4
-4 4 -10z"/>
<path d="M1927 2224 c-4 -4 -23 -7 -44 -8 -52 -1 -55 -27 -7 -56 63 -40 175
-24 182 25 2 16 -6 23 -37 33 -44 13 -84 16 -94 6z"/>
<path d="M1216 2084 c-10 -26 -7 -49 9 -70 13 -17 14 -15 15 34 0 50 -12 68
-24 36z"/>
<path d="M1130 1703 c0 -16 52 -155 56 -150 2 2 -9 39 -26 83 -16 43 -29 74
-30 67z"/>
<path d="M2111 1665 c-11 -24 -32 -61 -48 -82 l-28 -37 28 18 c27 18 27 18 67
-18 34 -30 140 -92 140 -81 0 16 -33 139 -45 168 -15 36 -58 77 -81 77 -7 0
-22 -20 -33 -45z"/>
<path d="M1440 1651 c-45 -24 -84 -66 -75 -81 4 -6 13 -9 21 -6 20 7 45 -4 37
-17 -3 -6 -1 -7 5 -3 6 4 9 13 5 21 -3 11 -1 13 10 10 10 -4 17 2 21 20 4 16
12 25 20 22 18 -7 38 27 23 42 -15 15 -26 13 -67 -8z"/>
<path d="M1752 1384 c15 -15 30 -26 33 -23 2 3 -10 16 -28 29 l-32 23 27 -29z"/>
<path d="M641 1375 c0 -5 9 -28 20 -50 10 -22 16 -29 13 -15 -7 28 -33 80 -33
65z"/>
<path d="M1721 1169 c0 -52 4 -116 8 -144 5 -29 6 8 3 90 -5 160 -12 194 -11
54z"/>
<path d="M701 1220 c0 -8 4 -24 9 -35 5 -13 9 -14 9 -5 0 8 -4 24 -9 35 -5 13
-9 14 -9 5z"/>
<path d="M721 1150 c0 -8 4 -24 9 -35 5 -13 9 -14 9 -5 0 8 -4 24 -9 35 -5 13
-9 14 -9 5z"/>
<path d="M640 1086 c0 -2 8 -10 18 -17 15 -13 16 -12 3 4 -13 16 -21 21 -21
13z"/>
<path d="M690 1020 c6 -11 13 -20 16 -20 2 0 0 9 -6 20 -6 11 -13 20 -16 20
-2 0 0 -9 6 -20z"/>
<path d="M761 984 c0 -11 3 -14 6 -6 3 7 2 16 -1 19 -3 4 -6 -2 -5 -13z"/>
<path d="M769 928 c-2 -26 -2 -26 6 -65 18 -101 26 -135 32 -130 7 7 -19 167
-27 167 -4 0 -5 11 -2 25 2 14 2 25 -2 25 -3 0 -7 -10 -7 -22z"/>
<path d="M1743 890 c0 -30 2 -43 4 -27 2 15 2 39 0 55 -2 15 -4 2 -4 -28z"/>
<path d="M1751 784 c0 -11 3 -14 6 -6 3 7 2 16 -1 19 -3 4 -6 -2 -5 -13z"/>
<path d="M811 705 c0 -11 6 -40 13 -65 19 -58 20 -30 2 35 -8 28 -15 41 -15
30z"/>
<path d="M1762 680 c0 -14 2 -19 5 -12 2 6 2 18 0 25 -3 6 -5 1 -5 -13z"/>
<path d="M2710 568 c0 -26 4 -38 8 -30 8 12 4 72 -4 72 -2 0 -4 -19 -4 -42z"/>
<path d="M841 574 c0 -11 3 -14 6 -6 3 7 2 16 -1 19 -3 4 -6 -2 -5 -13z"/>
<path d="M1773 550 c0 -25 2 -35 4 -22 2 12 2 32 0 45 -2 12 -4 2 -4 -23z"/>
<path d="M590 516 c0 -8 4 -17 9 -20 5 -4 7 3 4 14 -6 23 -13 26 -13 6z"/>
<path d="M861 502 c-1 -15 26 -82 33 -82 3 0 -1 15 -8 33 -7 17 -16 39 -19 47
-3 10 -6 10 -6 2z"/>
<path d="M2711 469 c-1 -31 -9 -58 -26 -83 -27 -40 -30 -61 -16 -99 12 -30 -4
-37 -92 -37 -69 0 -142 -17 -158 -36 -8 -10 5 -8 46 6 78 27 179 27 222 0 39
-23 71 -73 104 -157 l24 -63 75 2 c41 1 63 4 47 6 -16 2 -25 8 -21 14 5 8 -3
9 -24 5 -27 -6 -30 -4 -27 14 2 12 9 28 16 38 6 9 0 3 -15 -12 -28 -30 -46
-28 -46 4 0 10 -4 19 -10 19 -8 0 -43 55 -39 62 0 2 -4 14 -9 28 -6 14 -16 40
-22 58 -7 18 -26 40 -41 48 -16 8 -29 18 -29 21 0 4 13 21 29 38 28 29 29 32
21 100 -6 59 -7 63 -9 24z"/>
<path d="M421 454 c0 -11 3 -14 6 -6 3 7 2 16 -1 19 -3 4 -6 -2 -5 -13z"/>
<path d="M380 363 c-1 -28 21 -62 52 -83 l33 -22 -28 26 c-15 14 -34 40 -42
58 -8 18 -14 28 -15 21z"/>
<path d="M1784 285 c0 -50 1 -71 3 -48 2 23 2 64 0 90 -2 26 -3 8 -3 -42z"/>
<path d="M484 241 c20 -22 26 -25 26 -13 0 4 -10 13 -22 21 -23 14 -23 14 -4
-8z"/>
<path d="M470 174 c0 -10 5 -26 10 -34 8 -11 9 -7 4 15 -8 37 -14 45 -14 19z"/>
<path d="M695 100 c10 -11 20 -20 23 -20 3 0 -3 9 -13 20 -10 11 -20 20 -23
20 -3 0 3 -9 13 -20z"/>
                        </g>
                    </mask>
                    
                    <g mask="url(#photo-mask)">
                        <text class="ascii" fill="#FFFFFF" font-size="10" line-height="10">
<tspan x="0" y="20">1101111000110011010110001111001110011100110011100110101</tspan>
<tspan x="0" y="30">1101111110100000110100110000101111111001000100001111001</tspan>
<tspan x="0" y="40">1000110000000100000110011001011111000101110101100010000</tspan>
<tspan x="0" y="50">1100111100111000111101110000100001011011100101010101011</tspan>
<tspan x="0" y="60">0011101111110000101101001110000011010011110010111110101</tspan>
<tspan x="0" y="70">1010111101011010100100000001100111111100000101100001110</tspan>
<tspan x="0" y="80">0001110000110010100000000000101001111110111000100100110</tspan>
<tspan x="0" y="90">1001011101111010010010100000001000101001110000011000110</tspan>
<tspan x="0" y="100">0001000001001000111110100101001011110100001101001011110</tspan>
<tspan x="0" y="110">1111000100110001100111111101111111010000001001100100101</tspan>
<tspan x="0" y="120">0000100001100111110111110110000000001011011000011110100</tspan>
<tspan x="0" y="130">0110111100011100001101111101111100111001001011101110100</tspan>
<tspan x="0" y="140">1011000110011001011101110110001101010010111101001011011</tspan>
<tspan x="0" y="150">0100011000000011011010010001001101110111010110010101010</tspan>
<tspan x="0" y="160">0100110000011100110110111011010100000000110111111010000</tspan>
<tspan x="0" y="170">1111110011010100000011110000110010101010011100101100000</tspan>
<tspan x="0" y="180">0010011110001111100101010011011100001000101111001001110</tspan>
<tspan x="0" y="190">1011100010100101010011001001100001100001100111111000010</tspan>
<tspan x="0" y="200">1010110010010010000001001000101000110100101111001010000</tspan>
<tspan x="0" y="210">1000011100000110100111011111011110000110110111000110011</tspan>
<tspan x="0" y="220">0100101100110011110001111101000011100110110111111101100</tspan>
<tspan x="0" y="230">0011010110011000111011101110101111111111100111011100000</tspan>
<tspan x="0" y="240">0111011010110110011001100101011001110010100111100011110</tspan>
<tspan x="0" y="250">0101110100111010010001101000011111101000111101011000101</tspan>
<tspan x="0" y="260">0000010111101000100001010011001101100000011101000110011</tspan>
<tspan x="0" y="270">0001101100100100101110100011100110001010111100100110101</tspan>
<tspan x="0" y="280">1110100110110111000110111010110010111110100000000011111</tspan>
<tspan x="0" y="290">0011111101000010100011111100100101110100111110000000110</tspan>
<tspan x="0" y="300">1001100111011011011001111011111100100100010000010101111</tspan>
<tspan x="0" y="310">0001001101011110010001111110011001001010110110000001001</tspan>
<tspan x="0" y="320">1010011011001010000101110100001001111110011000011000011</tspan>
<tspan x="0" y="330">0111100100110000000101011101101110010001100101100100111</tspan>
<tspan x="0" y="340">1101110011111010110110110111100000010000011000000111110</tspan>
<tspan x="0" y="350">1001001111010110000000000010100001011101010110111110000</tspan>
<tspan x="0" y="360">1100110101011011010010010111001101110110011110010011101</tspan>
<tspan x="0" y="370">1010101101000110100011011001011010111011000110101111111</tspan>
<tspan x="0" y="380">1011101101011000110101110001001100001010100001101001000</tspan>
<tspan x="0" y="390">0010110111010110100101011000001001100001111101110111111</tspan>
<tspan x="0" y="400">1101000100010010101100100100011010111001001001000011011</tspan>
<tspan x="0" y="410">1000100100000011010000110111110000001001101000010010000</tspan>
<tspan x="0" y="420">0000010100010001100011001111010111011011010100001010001</tspan>
<tspan x="0" y="430">0111100011100011001111010110110000010101100001101100010</tspan>
<tspan x="0" y="440">0111101100001110101001101100000110001100011110110011111</tspan>
<tspan x="0" y="450">1110011101101011010001110011101000100110111111010100100</tspan>
<tspan x="0" y="460">1000110101100011010111111100100010001000101100100010010</tspan>
                        </text>
                    </g>
                    
                    <!-- ASCII Reveal -->
                    <rect x="-20" y="-20" width="360" height="400" fill="#0F172A">
                        <animate attributeName="height" values="400;0" dur="3s" fill="freeze" />
                    </rect>
                </g>
            </g>

            <!-- RIGHT PANEL -->
            <g transform="translate(442, 0)">
                <rect width="658" height="530" rx="16" fill="#0F172A" opacity="0.6" filter="url(#blur)" />
                <rect width="658" height="530" rx="16" fill="rgba(15,23,42,0.4)" stroke="rgba(255,255,255,0.08)" stroke-width="1.5" />
                
                <!-- Terminal Header -->
                <path d="M0 44 Q0 0 44 0 L614 0 Q658 0 658 44 L658 44 L0 44 Z" fill="rgba(255,255,255,0.02)" />
                <path d="M0 44 L658 44" stroke="rgba(255,255,255,0.05)" stroke-width="1.5" />
                <circle cx="24" cy="22" r="6" fill="#EF4444" />
                <circle cx="44" cy="22" r="6" fill="#F59E0B" />
                <circle cx="64" cy="22" r="6" fill="#10B981" />
                <text x="329" y="27" class="text-muted text-code" font-size="12" text-anchor="middle">guest@portfolio ~ bash</text>

                <!-- Content -->
                <g transform="translate(44, 90)">
                    <text class="text-primary" font-size="36" font-weight="700" y="0">Hi 👋 I'm Misho</text>
                    
                    <!-- Typing Roles -->
                    <g transform="translate(0, 50)" font-size="20" font-weight="600" class="text-code" fill="url(#accent)">
                        <g>
                            <animate attributeName="opacity" values="1;1;0;0;0;0" keyTimes="0;0.333;0.334;0.666;0.667;1" dur="12s" repeatCount="indefinite" />
                            <text x="0" y="0" clip-path="url(#type-clip-1)">&gt; Frontend Engineer</text>
                            <rect x="0" y="-17" width="10" height="20" fill="#22D3EE">
                                <animate attributeName="x" values="0;225;225;0" keyTimes="0;0.3;0.8;1" dur="4s" repeatCount="indefinite" />
                                <animate attributeName="opacity" values="1;0;1" dur="0.8s" repeatCount="indefinite" />
                            </rect>
                        </g>
                        <g opacity="0">
                            <animate attributeName="opacity" values="0;0;1;1;0;0" keyTimes="0;0.333;0.334;0.666;0.667;1" dur="12s" repeatCount="indefinite" />
                            <text x="0" y="0" clip-path="url(#type-clip-2)">&gt; Full Stack Developer</text>
                            <rect x="0" y="-17" width="10" height="20" fill="#22D3EE">
                                <animate attributeName="x" values="0;265;265;0" keyTimes="0;0.3;0.8;1" dur="4s" repeatCount="indefinite" />
                                <animate attributeName="opacity" values="1;0;1" dur="0.8s" repeatCount="indefinite" />
                            </rect>
                        </g>
                        <g opacity="0">
                            <animate attributeName="opacity" values="0;0;0;0;1;1" keyTimes="0;0.333;0.334;0.666;0.667;1" dur="12s" repeatCount="indefinite" />
                            <text x="0" y="0" clip-path="url(#type-clip-3)">&gt; UI Engineer</text>
                            <rect x="0" y="-17" width="10" height="20" fill="#22D3EE">
                                <animate attributeName="x" values="0;155;155;0" keyTimes="0;0.3;0.8;1" dur="4s" repeatCount="indefinite" />
                                <animate attributeName="opacity" values="1;0;1" dur="0.8s" repeatCount="indefinite" />
                            </rect>
                        </g>
                    </g>

                    <!-- Details -->
                    <g transform="translate(0, 110)" class="text-muted text-code" font-size="14">
                        <g opacity="0">
                            <animate attributeName="opacity" values="0;1" begin="0.5s" dur="0.5s" fill="freeze" />
                            <text y="0"><tspan font-weight="600" fill="#F8FAFC">const</tspan> location = <tspan fill="#10B981">"Tbilisi, Georgia"</tspan>;</text>
                        </g>
                        <g opacity="0">
                            <animate attributeName="opacity" values="0;1" begin="1s" dur="0.5s" fill="freeze" />
                            <text y="30"><tspan font-weight="600" fill="#F8FAFC">const</tspan> education = <tspan fill="#10B981">"Computer Science"</tspan>;</text>
                        </g>
                        <g opacity="0">
                            <animate attributeName="opacity" values="0;1" begin="1.5s" dur="0.5s" fill="freeze" />
                            <text y="60"><tspan font-weight="600" fill="#F8FAFC">const</tspan> focus = <tspan fill="#10B981">"Building scalable web apps"</tspan>;</text>
                        </g>
                        <g opacity="0">
                            <animate attributeName="opacity" values="0;1" begin="2s" dur="0.5s" fill="freeze" />
                            <text y="90"><tspan font-weight="600" fill="#F8FAFC">const</tspan> portfolio = <tspan fill="#22D3EE" text-decoration="underline">"https://mishodev.vercel.app/"</tspan>;</text>
                        </g>
                        <g opacity="0">
                            <animate attributeName="opacity" values="0;1" begin="2.5s" dur="0.5s" fill="freeze" />
                            <text y="120"><tspan font-weight="600" fill="#F8FAFC">const</tspan> email = <tspan fill="#22D3EE" text-decoration="underline">"mishikoaspanidze1999@gmail.com"</tspan>;</text>
                        </g>
                    </g>

                    <!-- Skills -->
                    <g transform="translate(0, 270)" opacity="0">
                        <animate attributeName="opacity" values="0;1" begin="3s" dur="0.5s" fill="freeze" />
                        <text class="text-primary text-code" font-size="14" font-weight="600" y="0">// Tech Stack</text>
                        
                        <g transform="translate(0, 20)">
                            <!-- Row 1 -->
                            <g class="pill-group" transform="translate(0, 0)">
                                <rect width="70" height="30" rx="15" class="pill" />
                                <text x="35" y="19" text-anchor="middle" class="pill-text">React</text>
                            </g>
                            <g class="pill-group" transform="translate(80, 0)">
                                <rect width="80" height="30" rx="15" class="pill" />
                                <text x="40" y="19" text-anchor="middle" class="pill-text">Next.js</text>
                            </g>
                            <g class="pill-group" transform="translate(170, 0)">
                                <rect width="80" height="30" rx="15" class="pill" />
                                <text x="40" y="19" text-anchor="middle" class="pill-text">Node.js</text>
                            </g>
                            <g class="pill-group" transform="translate(260, 0)">
                                <rect width="100" height="30" rx="15" class="pill" />
                                <text x="50" y="19" text-anchor="middle" class="pill-text">TypeScript</text>
                            </g>
                            <g class="pill-group" transform="translate(370, 0)">
                                <rect width="90" height="30" rx="15" class="pill" />
                                <text x="45" y="19" text-anchor="middle" class="pill-text">Tailwind</text>
                            </g>
                            
                            <!-- Row 2 -->
                            <g class="pill-group" transform="translate(0, 40)">
                                <rect width="75" height="30" rx="15" class="pill" />
                                <text x="37.5" y="19" text-anchor="middle" class="pill-text">Python</text>
                            </g>
                            <g class="pill-group" transform="translate(85, 40)">
                                <rect width="75" height="30" rx="15" class="pill" />
                                <text x="37.5" y="19" text-anchor="middle" class="pill-text">Docker</text>
                            </g>
                            <g class="pill-group" transform="translate(170, 40)">
                                <rect width="90" height="30" rx="15" class="pill" />
                                <text x="45" y="19" text-anchor="middle" class="pill-text">Postgres</text>
                            </g>
                            <g class="pill-group" transform="translate(270, 40)">
                                <rect width="60" height="30" rx="15" class="pill" />
                                <text x="30" y="19" text-anchor="middle" class="pill-text">AWS</text>
                            </g>
                            <g class="pill-group" transform="translate(340, 40)">
                                <rect width="50" height="30" rx="15" class="pill" />
                                <text x="25" y="19" text-anchor="middle" class="pill-text">Git</text>
                            </g>
                            <g class="pill-group" transform="translate(400, 40)">
                                <rect width="65" height="30" rx="15" class="pill" />
                                <text x="32.5" y="19" text-anchor="middle" class="pill-text">Figma</text>
                            </g>
                        </g>
                    </g>

                    <!-- Social Icons -->
                    <g transform="translate(0, 390)" opacity="0">
                        <animate attributeName="opacity" values="0;1" begin="3.5s" dur="0.5s" fill="freeze" />
                        <!-- GitHub -->
                        <a href="https://mishodev.vercel.app/" target="_blank" class="icon-group">
                            <path class="icon" transform="scale(1.2)" d="M12 0c-6.626 0-12 5.373-12 12 0 5.302 3.438 9.8 8.207 11.387.599.111.793-.261.793-.577v-2.234c-3.338.726-4.033-1.416-4.033-1.416-.546-1.387-1.333-1.756-1.333-1.756-1.089-.745.083-.729.083-.729 1.205.084 1.839 1.237 1.839 1.237 1.07 1.834 2.807 1.304 3.492.997.107-.775.418-1.305.762-1.604-2.665-.305-5.467-1.334-5.467-5.931 0-1.311.469-2.381 1.236-3.221-.124-.303-.535-1.524.117-3.176 0 0 1.008-.322 3.301 1.23.957-.266 1.983-.399 3.003-.404 1.02.005 2.047.138 3.006.404 2.291-1.552 3.297-1.23 3.297-1.23.653 1.653.242 2.874.118 3.176.77.84 1.235 1.911 1.235 3.221 0 4.609-2.807 5.624-5.479 5.921.43.372.823 1.102.823 2.222v3.293c0 .319.192.694.801.576 4.765-1.589 8.199-6.086 8.199-11.386 0-6.627-5.373-12-12-12z"/>
                        </a>
                        <!-- LinkedIn -->
                        <a href="https://mishodev.vercel.app/" target="_blank" class="icon-group">
                            <path class="icon" transform="translate(45,0) scale(1.2)" d="M19 0h-14c-2.761 0-5 2.239-5 5v14c0 2.761 2.239 5 5 5h14c2.762 0 5-2.239 5-5v-14c0-2.761-2.238-5-5-5zm-11 19h-3v-11h3v11zm-1.5-12.268c-.966 0-1.75-.79-1.75-1.764s.784-1.764 1.75-1.764 1.75.79 1.75 1.764-.783 1.764-1.75 1.764zm13.5 12.268h-3v-5.604c0-3.368-4-3.113-4 0v5.604h-3v-11h3v1.765c1.396-2.586 7-2.777 7 2.476v6.759z"/>
                        </a>
                        <!-- Twitter/X -->
                        <a href="https://mishodev.vercel.app/" target="_blank" class="icon-group">
                            <path class="icon" transform="translate(90,2) scale(1.1)" d="M18.244 2.25h3.308l-7.227 8.26 8.502 11.24H16.17l-5.214-6.817L4.99 21.75H1.68l7.73-8.835L1.254 2.25H8.08l4.713 6.231zm-1.161 17.52h1.833L7.084 4.126H5.117z"/>
                        </a>
                        <!-- Portfolio -->
                        <a href="https://mishodev.vercel.app/" target="_blank" class="icon-group">
                            <path class="icon" transform="translate(135,0) scale(1.2)" d="M12 0c-6.627 0-12 5.373-12 12s5.373 12 12 12 12-5.373 12-12-5.373-12-12-12zm1 22.845c-4.481-1.34-8.08-4.509-9.35-8.845h5.45c.421 3.528 1.637 6.643 3.9 8.845zm-2 0c-2.263-2.202-3.479-5.317-3.9-8.845h-5.45c1.27 4.336 4.869 7.505 9.35 8.845zm-9.75-10.845h5.275c-.156-1.286-.251-2.618-.251-4s.095-2.714.251-4h-5.275c-.569 1.252-.89 2.597-.89 4s.321 2.748.89 4zm1.295-6h5.45c.421-3.528 1.637-6.643 3.9-8.845-4.481 1.34-8.08 4.509-9.35 8.845zm9.455-8.845c2.263 2.202 3.479 5.317 3.9 8.845h5.45c-1.27-4.336-4.869-7.505-9.35-8.845zm4.825 10.845h5.275c.569-1.252.89-2.597.89-4s-.321-2.748-.89-4h-5.275c.156 1.286.251 2.618.251 4s-.095 2.714-.251 4zm-5.825 0h-4c-.126-1.3-.2-2.635-.2-4s.074-2.7.2-4h4c.126 1.3.2 2.635.2 4s-.074 2.7-.2 4z"/>
                        </a>
                    </g>
                </g>
            </g>
        </g>
    </g>
</svg>

