<svg xmlns="http://www.w3.org/2000/svg" width="1180" height="610" viewBox="0 0 1180 610" fill="none">
    <style>
        
        .text-primary { font-family: -apple-system, BlinkMacSystemFont, 'Segoe UI', Roboto, Helvetica, Arial, sans-serif; fill: #F8FAFC; }
        .text-muted { font-family: -apple-system, BlinkMacSystemFont, 'Segoe UI', Roboto, Helvetica, Arial, sans-serif; fill: #94A3B8; }
        .text-code { font-family: 'SFMono-Regular', Consolas, 'Liberation Mono', Menlo, Courier, monospace; }
        .ascii { font-family: 'SFMono-Regular', Consolas, 'Liberation Mono', Menlo, Courier, monospace; font-size: 14px; font-weight: 700; white-space: pre; line-height: 1.2; }
        .pill { cursor: pointer; transition: all 0.3s ease; fill: rgba(255,255,255,0.03); stroke: rgba(255,255,255,0.1); stroke-width: 1; }
        .pill-text { font-family: -apple-system, BlinkMacSystemFont, 'Segoe UI', Roboto, Helvetica, Arial, sans-serif; font-size: 13px; font-weight: 500; fill: #94A3B8; pointer-events: none; transition: all 0.3s ease; }
        .pill-group:hover .pill { fill: rgba(255,255,255,0.1); stroke: #22D3EE; filter: drop-shadow(0 0 8px rgba(34,211,238,0.4)); transform: scale(1.05); }
        .pill-group:hover .pill-text { fill: #F8FAFC; }
        .icon { fill: #94A3B8; transition: all 0.3s ease; cursor: pointer; }
        .icon-group:hover .icon { fill: #22D3EE; filter: drop-shadow(0 0 5px #22D3EE); transform: scale(1.1); transform-origin: center; }
    </style>
    <defs>
        <linearGradient id="accent" x1="0%" y1="0%" x2="100%" y2="0%">
            <stop offset="0%" stop-color="#7C3AED">
                <animate attributeName="stop-color" values="#7C3AED;#22D3EE;#10B981;#7C3AED" dur="8s" repeatCount="indefinite" />
            </stop>
            <stop offset="50%" stop-color="#22D3EE">
                <animate attributeName="stop-color" values="#22D3EE;#10B981;#7C3AED;#22D3EE" dur="8s" repeatCount="indefinite" />
            </stop>
            <stop offset="100%" stop-color="#10B981">
                <animate attributeName="stop-color" values="#10B981;#7C3AED;#22D3EE;#10B981" dur="8s" repeatCount="indefinite" />
            </stop>
        </linearGradient>
        <linearGradient id="ascii-grad" x1="0%" y1="0%" x2="100%" y2="100%">
            <stop offset="0%" stop-color="#06B6D4" />
            <stop offset="100%" stop-color="#8B5CF6" />
        </linearGradient>
        <radialGradient id="glow-1" cx="20%" cy="30%" r="50%">
            <stop offset="0%" stop-color="rgba(124,58,237,0.15)" />
            <stop offset="100%" stop-color="rgba(124,58,237,0)" />
        </radialGradient>
        <radialGradient id="glow-2" cx="80%" cy="70%" r="50%">
            <stop offset="0%" stop-color="rgba(34,211,238,0.15)" />
            <stop offset="100%" stop-color="rgba(34,211,238,0)" />
        </radialGradient>
        <radialGradient id="glow-3" cx="50%" cy="100%" r="50%">
            <stop offset="0%" stop-color="rgba(16,185,129,0.1)" />
            <stop offset="100%" stop-color="rgba(16,185,129,0)" />
        </radialGradient>
        <filter id="noise">
            <feTurbulence type="fractalNoise" baseFrequency="0.7" numOctaves="3" stitchTiles="stitch"/>
            <feColorMatrix type="matrix" values="1 0 0 0 0, 0 1 0 0 0, 0 0 1 0 0, 0 0 0 0.05 0" />
        </filter>
        <filter id="blur" x="-20%" y="-20%" width="140%" height="140%">
            <feGaussianBlur stdDeviation="12" />
        </filter>
        <clipPath id="main-clip">
            <rect width="1180" height="610" rx="24" />
        </clipPath>
        <clipPath id="type-clip-1">
            <rect x="0" y="-22" width="0" height="30">
                <animate attributeName="width" values="0;220;220;0" keyTimes="0;0.3;0.8;1" dur="4s" repeatCount="indefinite" />
            </rect>
        </clipPath>
        <clipPath id="type-clip-2">
            <rect x="0" y="-22" width="0" height="30">
                <animate attributeName="width" values="0;250;250;0" keyTimes="0;0.3;0.8;1" dur="4s" repeatCount="indefinite" />
            </rect>
        </clipPath>
        <clipPath id="type-clip-3">
            <rect x="0" y="-22" width="0" height="30">
                <animate attributeName="width" values="0;140;140;0" keyTimes="0;0.3;0.8;1" dur="4s" repeatCount="indefinite" />
            </rect>
        </clipPath>
    </defs>
    
    <g clip-path="url(#main-clip)">
        <rect width="1180" height="610" fill="#030712" />
        
        <!-- Animated Gradients -->
        <circle cx="200" cy="200" r="400" fill="url(#glow-1)">
            <animate attributeName="cx" values="100;300;100" dur="20s" repeatCount="indefinite" />
        </circle>
        <circle cx="900" cy="400" r="500" fill="url(#glow-2)">
            <animate attributeName="cx" values="1000;800;1000" dur="22s" repeatCount="indefinite" />
        </circle>
        <circle cx="600" cy="500" r="400" fill="url(#glow-3)">
            <animate attributeName="cy" values="600;400;600" dur="15s" repeatCount="indefinite" />
        </circle>

        <!-- Noise -->
        <rect width="1180" height="610" filter="url(#noise)" opacity="0.5" pointer-events="none" />

        <!-- Floating Particles -->
        <g fill="#22D3EE" opacity="0.4">
            <circle cx="150" cy="150" r="1.5"><animate attributeName="cy" values="150;50;150" dur="10s" repeatCount="indefinite"/><animate attributeName="opacity" values="0.1;0.8;0.1" dur="4s" repeatCount="indefinite"/></circle>
            <circle cx="350" cy="450" r="2"><animate attributeName="cy" values="450;350;450" dur="12s" repeatCount="indefinite"/><animate attributeName="opacity" values="0.1;0.6;0.1" dur="5s" repeatCount="indefinite"/></circle>
            <circle cx="850" cy="250" r="1"><animate attributeName="cy" values="250;150;250" dur="15s" repeatCount="indefinite"/><animate attributeName="opacity" values="0.1;0.9;0.1" dur="6s" repeatCount="indefinite"/></circle>
            <circle cx="1050" cy="500" r="2.5"><animate attributeName="cy" values="500;400;500" dur="11s" repeatCount="indefinite"/><animate attributeName="opacity" values="0.1;0.5;0.1" dur="3s" repeatCount="indefinite"/></circle>
        </g>

        <!-- Container -->
        <g transform="translate(40, 40)">
            
            <!-- LEFT PANEL (ASCII) -->
            <g>
                <rect width="418" height="530" rx="16" fill="#0F172A" opacity="0.6" filter="url(#blur)" />
                <rect width="418" height="530" rx="16" fill="rgba(15,23,42,0.4)" stroke="rgba(255,255,255,0.08)" stroke-width="1.5" />
                
                <rect width="418" height="530" rx="16" fill="none" stroke="url(#accent)" stroke-width="1.5" opacity="0.5">
                    <animate attributeName="opacity" values="0.2;0.8;0.2" dur="4s" repeatCount="indefinite" />
                </rect>

                <!-- Floating ASCII -->
                <g transform="translate(40, 100)">
                    <animateTransform attributeName="transform" type="translate" values="40,100; 40,90; 40,100" dur="6s" repeatCount="indefinite" />
                    
                    <text class="ascii" fill="url(#ascii-grad)">
<tspan x="0" y="0">    ::::    ::::  :::::::::  </tspan>
<tspan x="0" y="20">    +:+:+: :+:+:+ :+:    :+: </tspan>
<tspan x="0" y="40">    +:+ +:+:+ +:+ +:+    +:+ </tspan>
<tspan x="0" y="60">    +#+  +:+  +#+ +#++:++#:  </tspan>
<tspan x="0" y="80">    +#+       +#+ +#+    +#+ </tspan>
<tspan x="0" y="100">    #+#       #+# #+#    #+# </tspan>
<tspan x="0" y="120">    ###       ### #########  </tspan>
<tspan x="0" y="160">  [ NEURAL LINK ESTABLISHED ]</tspan>
<tspan x="0" y="200">  &gt; SYSTEM ONLINE           </tspan>
<tspan x="0" y="220">  &gt; ENCRYPTING CONNECTION... </tspan>
<tspan x="0" y="240">  &gt; ACCESS GRANTED.         </tspan>
                    </text>
                    
                    <!-- ASCII Reveal -->
                    <rect x="0" y="-20" width="340" height="300" fill="#0F172A">
                        <animate attributeName="height" values="300;0" dur="3s" fill="freeze" />
                    </rect>
                </g>

                <!-- Scanline -->
                <rect x="0" y="0" width="418" height="3" fill="rgba(34,211,238,0.3)">
                    <animate attributeName="y" values="-10;540;-10" dur="4s" repeatCount="indefinite" />
                </rect>
            </g>

            <!-- RIGHT PANEL -->
            <g transform="translate(442, 0)">
                <rect width="658" height="530" rx="16" fill="#0F172A" opacity="0.6" filter="url(#blur)" />
                <rect width="658" height="530" rx="16" fill="rgba(15,23,42,0.4)" stroke="rgba(255,255,255,0.08)" stroke-width="1.5" />
                
                <!-- Terminal Header -->
                <path d="M0 44 Q0 0 44 0 L614 0 Q658 0 658 44 L658 44 L0 44 Z" fill="rgba(255,255,255,0.02)" />
                <path d="M0 44 L658 44" stroke="rgba(255,255,255,0.05)" stroke-width="1.5" />
                <circle cx="24" cy="22" r="6" fill="#EF4444" />
                <circle cx="44" cy="22" r="6" fill="#F59E0B" />
                <circle cx="64" cy="22" r="6" fill="#10B981" />
                <text x="329" y="27" class="text-muted text-code" font-size="12" text-anchor="middle">guest@portfolio ~ bash</text>

                <!-- Content -->
                <g transform="translate(44, 90)">
                    <text class="text-primary" font-size="36" font-weight="700" y="0">Hi 👋 I'm Misho</text>
                    
                    <!-- Typing Roles -->
                    <g transform="translate(0, 50)" font-size="20" font-weight="600" class="text-code" fill="url(#accent)">
                        <g>
                            <animate attributeName="opacity" values="1;1;0;0;0;0" keyTimes="0;0.333;0.334;0.666;0.667;1" dur="12s" repeatCount="indefinite" />
                            <text x="0" y="0" clip-path="url(#type-clip-1)">&gt; Frontend Engineer</text>
                            <rect x="0" y="-17" width="10" height="20" fill="#22D3EE">
                                <animate attributeName="x" values="0;225;225;0" keyTimes="0;0.3;0.8;1" dur="4s" repeatCount="indefinite" />
                                <animate attributeName="opacity" values="1;0;1" dur="0.8s" repeatCount="indefinite" />
                            </rect>
                        </g>
                        <g opacity="0">
                            <animate attributeName="opacity" values="0;0;1;1;0;0" keyTimes="0;0.333;0.334;0.666;0.667;1" dur="12s" repeatCount="indefinite" />
                            <text x="0" y="0" clip-path="url(#type-clip-2)">&gt; Full Stack Developer</text>
                            <rect x="0" y="-17" width="10" height="20" fill="#22D3EE">
                                <animate attributeName="x" values="0;265;265;0" keyTimes="0;0.3;0.8;1" dur="4s" repeatCount="indefinite" />
                                <animate attributeName="opacity" values="1;0;1" dur="0.8s" repeatCount="indefinite" />
                            </rect>
                        </g>
                        <g opacity="0">
                            <animate attributeName="opacity" values="0;0;0;0;1;1" keyTimes="0;0.333;0.334;0.666;0.667;1" dur="12s" repeatCount="indefinite" />
                            <text x="0" y="0" clip-path="url(#type-clip-3)">&gt; UI Engineer</text>
                            <rect x="0" y="-17" width="10" height="20" fill="#22D3EE">
                                <animate attributeName="x" values="0;155;155;0" keyTimes="0;0.3;0.8;1" dur="4s" repeatCount="indefinite" />
                                <animate attributeName="opacity" values="1;0;1" dur="0.8s" repeatCount="indefinite" />
                            </rect>
                        </g>
                    </g>

                    <!-- Details -->
                    <g transform="translate(0, 110)" class="text-muted text-code" font-size="14">
                        <g opacity="0">
                            <animate attributeName="opacity" values="0;1" begin="0.5s" dur="0.5s" fill="freeze" />
                            <text y="0"><tspan font-weight="600" fill="#F8FAFC">const</tspan> location = <tspan fill="#10B981">"Tbilisi, Georgia"</tspan>;</text>
                        </g>
                        <g opacity="0">
                            <animate attributeName="opacity" values="0;1" begin="1s" dur="0.5s" fill="freeze" />
                            <text y="30"><tspan font-weight="600" fill="#F8FAFC">const</tspan> education = <tspan fill="#10B981">"Computer Science"</tspan>;</text>
                        </g>
                        <g opacity="0">
                            <animate attributeName="opacity" values="0;1" begin="1.5s" dur="0.5s" fill="freeze" />
                            <text y="60"><tspan font-weight="600" fill="#F8FAFC">const</tspan> focus = <tspan fill="#10B981">"Building scalable web apps"</tspan>;</text>
                        </g>
                        <g opacity="0">
                            <animate attributeName="opacity" values="0;1" begin="2s" dur="0.5s" fill="freeze" />
                            <text y="90"><tspan font-weight="600" fill="#F8FAFC">const</tspan> portfolio = <tspan fill="#22D3EE" text-decoration="underline">"https://misho.dev"</tspan>;</text>
                        </g>
                        <g opacity="0">
                            <animate attributeName="opacity" values="0;1" begin="2.5s" dur="0.5s" fill="freeze" />
                            <text y="120"><tspan font-weight="600" fill="#F8FAFC">const</tspan> email = <tspan fill="#22D3EE" text-decoration="underline">"hello@misho.dev"</tspan>;</text>
                        </g>
                    </g>

                    <!-- Skills -->
                    <g transform="translate(0, 270)" opacity="0">
                        <animate attributeName="opacity" values="0;1" begin="3s" dur="0.5s" fill="freeze" />
                        <text class="text-primary text-code" font-size="14" font-weight="600" y="0">// Tech Stack</text>
                        
                        <g transform="translate(0, 20)">
                            <!-- Row 1 -->
                            <g class="pill-group" transform="translate(0, 0)">
                                <rect width="70" height="30" rx="15" class="pill" />
                                <text x="35" y="19" text-anchor="middle" class="pill-text">React</text>
                            </g>
                            <g class="pill-group" transform="translate(80, 0)">
                                <rect width="80" height="30" rx="15" class="pill" />
                                <text x="40" y="19" text-anchor="middle" class="pill-text">Next.js</text>
                            </g>
                            <g class="pill-group" transform="translate(170, 0)">
                                <rect width="80" height="30" rx="15" class="pill" />
                                <text x="40" y="19" text-anchor="middle" class="pill-text">Node.js</text>
                            </g>
                            <g class="pill-group" transform="translate(260, 0)">
                                <rect width="100" height="30" rx="15" class="pill" />
                                <text x="50" y="19" text-anchor="middle" class="pill-text">TypeScript</text>
                            </g>
                            <g class="pill-group" transform="translate(370, 0)">
                                <rect width="90" height="30" rx="15" class="pill" />
                                <text x="45" y="19" text-anchor="middle" class="pill-text">Tailwind</text>
                            </g>
                            
                            <!-- Row 2 -->
                            <g class="pill-group" transform="translate(0, 40)">
                                <rect width="75" height="30" rx="15" class="pill" />
                                <text x="37.5" y="19" text-anchor="middle" class="pill-text">Python</text>
                            </g>
                            <g class="pill-group" transform="translate(85, 40)">
                                <rect width="75" height="30" rx="15" class="pill" />
                                <text x="37.5" y="19" text-anchor="middle" class="pill-text">Docker</text>
                            </g>
                            <g class="pill-group" transform="translate(170, 40)">
                                <rect width="90" height="30" rx="15" class="pill" />
                                <text x="45" y="19" text-anchor="middle" class="pill-text">Postgres</text>
                            </g>
                            <g class="pill-group" transform="translate(270, 40)">
                                <rect width="60" height="30" rx="15" class="pill" />
                                <text x="30" y="19" text-anchor="middle" class="pill-text">AWS</text>
                            </g>
                            <g class="pill-group" transform="translate(340, 40)">
                                <rect width="50" height="30" rx="15" class="pill" />
                                <text x="25" y="19" text-anchor="middle" class="pill-text">Git</text>
                            </g>
                            <g class="pill-group" transform="translate(400, 40)">
                                <rect width="65" height="30" rx="15" class="pill" />
                                <text x="32.5" y="19" text-anchor="middle" class="pill-text">Figma</text>
                            </g>
                        </g>
                    </g>

                    <!-- Social Icons -->
                    <g transform="translate(0, 390)" opacity="0">
                        <animate attributeName="opacity" values="0;1" begin="3.5s" dur="0.5s" fill="freeze" />
                        <!-- GitHub -->
                        <a href="#" target="_blank" class="icon-group">
                            <path class="icon" transform="scale(1.2)" d="M12 0c-6.626 0-12 5.373-12 12 0 5.302 3.438 9.8 8.207 11.387.599.111.793-.261.793-.577v-2.234c-3.338.726-4.033-1.416-4.033-1.416-.546-1.387-1.333-1.756-1.333-1.756-1.089-.745.083-.729.083-.729 1.205.084 1.839 1.237 1.839 1.237 1.07 1.834 2.807 1.304 3.492.997.107-.775.418-1.305.762-1.604-2.665-.305-5.467-1.334-5.467-5.931 0-1.311.469-2.381 1.236-3.221-.124-.303-.535-1.524.117-3.176 0 0 1.008-.322 3.301 1.23.957-.266 1.983-.399 3.003-.404 1.02.005 2.047.138 3.006.404 2.291-1.552 3.297-1.23 3.297-1.23.653 1.653.242 2.874.118 3.176.77.84 1.235 1.911 1.235 3.221 0 4.609-2.807 5.624-5.479 5.921.43.372.823 1.102.823 2.222v3.293c0 .319.192.694.801.576 4.765-1.589 8.199-6.086 8.199-11.386 0-6.627-5.373-12-12-12z"/>
                        </a>
                        <!-- LinkedIn -->
                        <a href="#" target="_blank" class="icon-group">
                            <path class="icon" transform="translate(45,0) scale(1.2)" d="M19 0h-14c-2.761 0-5 2.239-5 5v14c0 2.761 2.239 5 5 5h14c2.762 0 5-2.239 5-5v-14c0-2.761-2.238-5-5-5zm-11 19h-3v-11h3v11zm-1.5-12.268c-.966 0-1.75-.79-1.75-1.764s.784-1.764 1.75-1.764 1.75.79 1.75 1.764-.783 1.764-1.75 1.764zm13.5 12.268h-3v-5.604c0-3.368-4-3.113-4 0v5.604h-3v-11h3v1.765c1.396-2.586 7-2.777 7 2.476v6.759z"/>
                        </a>
                        <!-- Twitter/X -->
                        <a href="#" target="_blank" class="icon-group">
                            <path class="icon" transform="translate(90,2) scale(1.1)" d="M18.244 2.25h3.308l-7.227 8.26 8.502 11.24H16.17l-5.214-6.817L4.99 21.75H1.68l7.73-8.835L1.254 2.25H8.08l4.713 6.231zm-1.161 17.52h1.833L7.084 4.126H5.117z"/>
                        </a>
                        <!-- Portfolio -->
                        <a href="#" target="_blank" class="icon-group">
                            <path class="icon" transform="translate(135,0) scale(1.2)" d="M12 0c-6.627 0-12 5.373-12 12s5.373 12 12 12 12-5.373 12-12-5.373-12-12-12zm1 22.845c-4.481-1.34-8.08-4.509-9.35-8.845h5.45c.421 3.528 1.637 6.643 3.9 8.845zm-2 0c-2.263-2.202-3.479-5.317-3.9-8.845h-5.45c1.27 4.336 4.869 7.505 9.35 8.845zm-9.75-10.845h5.275c-.156-1.286-.251-2.618-.251-4s.095-2.714.251-4h-5.275c-.569 1.252-.89 2.597-.89 4s.321 2.748.89 4zm1.295-6h5.45c.421-3.528 1.637-6.643 3.9-8.845-4.481 1.34-8.08 4.509-9.35 8.845zm9.455-8.845c2.263 2.202 3.479 5.317 3.9 8.845h5.45c-1.27-4.336-4.869-7.505-9.35-8.845zm4.825 10.845h5.275c.569-1.252.89-2.597.89-4s-.321-2.748-.89-4h-5.275c.156 1.286.251 2.618.251 4s-.095 2.714-.251 4zm-5.825 0h-4c-.126-1.3-.2-2.635-.2-4s.074-2.7.2-4h4c.126 1.3.2 2.635.2 4s-.074 2.7-.2 4z"/>
                        </a>
                    </g>
                </g>
            </g>
        </g>
    </g>
</svg>

